<svg xmlns="http://www.w3.org/2000/svg" width="1440" height="640" viewBox="0 0 1440 640" role="img" aria-label="Modern apartment building at dusk">
  <defs>
    <linearGradient id="sky" x1="0" x2="1" y1="0" y2="1">
      <stop offset="0" stop-color="#dceafd"/>
      <stop offset="0.55" stop-color="#f6f0df"/>
      <stop offset="1" stop-color="#d8ece6"/>
    </linearGradient>
    <linearGradient id="glass" x1="0" x2="1" y1="0" y2="1">
      <stop offset="0" stop-color="#5a8fdc"/>
      <stop offset="1" stop-color="#1d3557"/>
    </linearGradient>
    <filter id="shadow" x="-20%" y="-20%" width="140%" height="140%">
      <feDropShadow dx="0" dy="24" stdDeviation="24" flood-color="#172033" flood-opacity=".22"/>
    </filter>
  </defs>
  <rect width="1440" height="640" fill="url(#sky)"/>
  <circle cx="1190" cy="125" r="68" fill="#f6c453" opacity=".86"/>
  <path d="M0 424c130-30 235-18 342 10 88 23 177 50 284 34 130-20 204-92 330-92 139 0 198 89 325 81 54-3 99-22 159-50v233H0z" fill="#9fc8ba" opacity=".7"/>
  <path d="M0 484c173-32 300-26 439 7 128 31 270 71 456 32 155-33 233-96 363-88 54 3 99 18 182 50v155H0z" fill="#6b9b8d" opacity=".5"/>
  <g filter="url(#shadow)">
    <rect x="415" y="98" width="394" height="430" rx="18" fill="#f8fafc"/>
    <rect x="457" y="54" width="392" height="474" rx="18" fill="#e7edf5"/>
    <rect x="505" y="124" width="257" height="404" rx="12" fill="#2b4162"/>
    <rect x="824" y="164" width="222" height="364" rx="14" fill="#f8fafc"/>
    <rect x="860" y="214" width="124" height="314" rx="10" fill="#22324c"/>
  </g>
  <g opacity=".95">
    <g fill="url(#glass)">
      <rect x="538" y="154" width="54" height="54" rx="6"/><rect x="620" y="154" width="54" height="54" rx="6"/><rect x="702" y="154" width="54" height="54" rx="6"/>
      <rect x="538" y="238" width="54" height="54" rx="6"/><rect x="620" y="238" width="54" height="54" rx="6"/><rect x="702" y="238" width="54" height="54" rx="6"/>
      <rect x="538" y="322" width="54" height="54" rx="6"/><rect x="620" y="322" width="54" height="54" rx="6"/><rect x="702" y="322" width="54" height="54" rx="6"/>
      <rect x="538" y="406" width="54" height="54" rx="6"/><rect x="620" y="406" width="54" height="54" rx="6"/><rect x="702" y="406" width="54" height="54" rx="6"/>
      <rect x="884" y="236" width="44" height="44" rx="5"/><rect x="952" y="236" width="44" height="44" rx="5"/>
      <rect x="884" y="306" width="44" height="44" rx="5"/><rect x="952" y="306" width="44" height="44" rx="5"/>
      <rect x="884" y="376" width="44" height="44" rx="5"/><rect x="952" y="376" width="44" height="44" rx="5"/>
    </g>
    <g fill="#ffd36f">
      <rect x="620" y="238" width="54" height="54" rx="6"/><rect x="702" y="406" width="54" height="54" rx="6"/><rect x="952" y="306" width="44" height="44" rx="5"/>
    </g>
  </g>
  <rect x="478" y="528" width="584" height="26" rx="13" fill="#2b4162" opacity=".2"/>
  <path d="M308 548h826" stroke="#f8fafc" stroke-width="18" stroke-linecap="round"/>
  <g fill="#2d6a4f">
    <circle cx="350" cy="502" r="46"/><rect x="338" y="502" width="24" height="66" rx="12"/>
    <circle cx="1130" cy="504" r="52"/><rect x="1116" y="504" width="28" height="68" rx="14"/>
  </g>
</svg>
