<svg xmlns="http://www.w3.org/2000/svg" width="720" height="420" viewBox="0 0 720 420" role="img" aria-label="Bright standard apartment room">
  <defs><linearGradient id="wall" x1="0" x2="1"><stop stop-color="#eef5f8"/><stop offset="1" stop-color="#fff7e8"/></linearGradient></defs>
  <rect width="720" height="420" fill="url(#wall)"/>
  <rect y="300" width="720" height="120" fill="#d7b98b"/>
  <path d="M0 300h720" stroke="#b98d5b" stroke-width="4"/>
  <rect x="70" y="72" width="190" height="150" rx="8" fill="#83a7c9"/>
  <rect x="88" y="92" width="154" height="110" rx="4" fill="#dceafd"/>
  <path d="M166 92v110M88 148h154" stroke="#ffffff" stroke-width="5"/>
  <rect x="352" y="202" width="268" height="105" rx="18" fill="#335c67"/>
  <rect x="328" y="260" width="320" height="70" rx="16" fill="#f4a261"/>
  <rect x="344" y="235" width="92" height="45" rx="10" fill="#fff3cf"/>
  <rect x="448" y="235" width="92" height="45" rx="10" fill="#f7e1b5"/>
  <rect x="118" y="244" width="156" height="18" rx="9" fill="#2d6a4f"/>
  <rect x="148" y="262" width="18" height="64" rx="9" fill="#2d6a4f"/>
  <rect x="228" y="262" width="18" height="64" rx="9" fill="#2d6a4f"/>
  <circle cx="198" cy="226" r="30" fill="#40916c"/>
  <rect x="564" y="112" width="52" height="92" rx="6" fill="#fff3cf"/>
  <rect x="575" y="86" width="30" height="42" rx="15" fill="#f6c453"/>
</svg>
