<svg xmlns="http://www.w3.org/2000/svg" width="720" height="420" viewBox="0 0 720 420" role="img" aria-label="Warm family suite interior">
  <rect width="720" height="420" fill="#f5f1e8"/>
  <rect y="290" width="720" height="130" fill="#bd8f66"/>
  <rect x="420" y="56" width="200" height="166" rx="10" fill="#3d5a80"/>
  <rect x="440" y="78" width="160" height="122" rx="5" fill="#bde0fe"/>
  <path d="M520 78v122M440 139h160" stroke="#fff" stroke-width="6"/>
  <rect x="78" y="198" width="270" height="112" rx="22" fill="#2f4858"/>
  <rect x="50" y="260" width="330" height="72" rx="18" fill="#ef476f"/>
  <rect x="86" y="226" width="90" height="48" rx="12" fill="#ffe6a7"/>
  <rect x="190" y="226" width="90" height="48" rx="12" fill="#f8d49d"/>
  <rect x="482" y="258" width="118" height="22" rx="11" fill="#386641"/>
  <rect x="508" y="280" width="18" height="64" rx="9" fill="#386641"/>
  <rect x="556" y="280" width="18" height="64" rx="9" fill="#386641"/>
  <circle cx="540" cy="235" r="36" fill="#52b788"/>
  <rect x="102" y="72" width="130" height="78" rx="8" fill="#f6bd60"/>
  <path d="M124 132c34-42 58-42 86 0" stroke="#7f4f24" stroke-width="8" fill="none" stroke-linecap="round"/>
</svg>
